HIERARCHY
ROOT Hips
{
	OFFSET 59.481899 -3.890595 94.027802
	CHANNELS 6 Xposition Yposition Zposition Xrotation Yrotation Zrotation
	JOINT spine
	{
		OFFSET 0.000000 -0.448574 7.800591
		CHANNELS 3 Xrotation Yrotation Zrotation
		JOINT spine1
		{
			OFFSET 0.000000 -0.000001 10.136398
			CHANNELS 3 Xrotation Yrotation Zrotation
			JOINT spine2
			{
				OFFSET 0.000000 -0.000002 9.712509
				CHANNELS 3 Xrotation Yrotation Zrotation
				JOINT Neck
				{
					OFFSET 0.000000 -1.188874 24.936104
					CHANNELS 3 Xrotation Yrotation Zrotation
					JOINT Head
					{
						OFFSET 0.000000 -0.000001 7.533844
						CHANNELS 3 Xrotation Yrotation Zrotation
						End Site
						{
							OFFSET 0.000000 6.014017 18.236099
						}
					}
				}
				JOINT RightShoulder
				{
					OFFSET -4.089649 0.569456 10.488808
					CHANNELS 3 Xrotation Yrotation Zrotation
					JOINT RightArm
					{
						OFFSET 0.000000 -0.000002 13.757004
						CHANNELS 3 Xrotation Yrotation Zrotation
						JOINT RightArmRoll
						{
							OFFSET 0.000000 -0.000001 6.944778
							CHANNELS 3 Xrotation Yrotation Zrotation
							JOINT RightForeArm
							{
								OFFSET 0.000000 -0.000003 20.227692
								CHANNELS 3 Xrotation Yrotation Zrotation
								JOINT RightForeArmRoll
								{
									OFFSET 0.000000 -0.000001 7.793121
									CHANNELS 3 Xrotation Yrotation Zrotation
									JOINT RightHand
									{
										OFFSET 0.000000 -0.000002 15.639099
										CHANNELS 3 Xrotation Yrotation Zrotation
										End Site
										{
											OFFSET 0.000000 0.000000 0.100006
										}
									}
								}
							}
						}
					}
				}
				JOINT LeftShoulder
				{
					OFFSET 4.089649 0.569456 10.488808
					CHANNELS 3 Xrotation Yrotation Zrotation
					JOINT LeftArm
					{
						OFFSET 0.000000 -0.000002 13.757004
						CHANNELS 3 Xrotation Yrotation Zrotation
						JOINT LeftArmRoll
						{
							OFFSET 0.000000 -0.000001 6.944778
							CHANNELS 3 Xrotation Yrotation Zrotation
							JOINT LeftForeArm
							{
								OFFSET 0.000000 -0.000003 20.227692
								CHANNELS 3 Xrotation Yrotation Zrotation
								JOINT LeftForeArmRoll
								{
									OFFSET 0.000000 -0.000001 7.793121
									CHANNELS 3 Xrotation Yrotation Zrotation
									JOINT LeftHand
									{
										OFFSET 0.000000 -0.000002 15.639099
										CHANNELS 3 Xrotation Yrotation Zrotation
										End Site
										{
											OFFSET 0.000000 0.000000 0.100006
										}
									}
								}
							}
						}
					}
				}
			}
		}
	}
	JOINT RightUpLeg
	{
		OFFSET -6.914158 1.063580 -1.267883
		CHANNELS 3 Xrotation Yrotation Zrotation
		JOINT RightUpLegRoll
		{
			OFFSET 0.000000 -0.000003 18.337799
			CHANNELS 3 Xrotation Yrotation Zrotation
			JOINT RightLeg
			{
				OFFSET 0.000000 0.000004 -22.708496
				CHANNELS 3 Xrotation Yrotation Zrotation
				JOINT RightLegRoll
				{
					OFFSET 0.000000 -0.000004 22.782799
					CHANNELS 3 Xrotation Yrotation Zrotation
					JOINT RightFoot
					{
						OFFSET 0.000000 -0.000003 18.962898
						CHANNELS 3 Xrotation Yrotation Zrotation
						JOINT RightToeBase
						{
							OFFSET 0.000000 -0.000003 15.852005
							CHANNELS 3 Xrotation Yrotation Zrotation
							End Site
							{
								OFFSET 0.006718 0.884891 7.677017
							}
						}
					}
				}
			}
		}
	}
	JOINT LeftUpLeg
	{
		OFFSET 6.914158 1.063580 -1.267883
		CHANNELS 3 Xrotation Yrotation Zrotation
		JOINT LeftUpLegRoll
		{
			OFFSET 0.000000 -0.000003 18.337898
			CHANNELS 3 Xrotation Yrotation Zrotation
			JOINT LeftLeg
			{
				OFFSET 0.000000 -0.000004 22.708397
				CHANNELS 3 Xrotation Yrotation Zrotation
				JOINT LeftLegRoll
				{
					OFFSET 0.000000 -0.000004 22.993408
					CHANNELS 3 Xrotation Yrotation Zrotation
					JOINT LeftFoot
					{
						OFFSET 0.000000 -0.000003 18.752197
						CHANNELS 3 Xrotation Yrotation Zrotation
						JOINT LeftToeBase
						{
							OFFSET 0.000000 -0.000003 15.852005
							CHANNELS 3 Xrotation Yrotation Zrotation
							End Site
							{
								OFFSET -0.030113 0.884891 7.677017
							}
						}
					}
				}
			}
		}
	}
}
MOTION
Frames: 10
Frame Time: 0.041667
55.613605 -9.846113 93.984398 -5.035258 3.265358 -2.443621 -0.229662 -0.331741 0.414700 3.545879 -0.636694 0.831108 5.190923 -0.626923 0.838665 18.849394 1.357571 -1.786677 -16.530332 -4.706415 -1.956836 -37.219405 -83.353955 -41.286813 52.976450 -80.606812 62.411926 0.000001 0.000005 -0.000001 22.576038 -13.818142 1.946539 0.000000 0.000007 -3.000000 -5.000343 -7.998721 0.000215 -1.786418 61.537033 2.416667 -5.602628 108.994287 -9.482922 -0.000001 0.000003 -0.000004 16.586460 2.939671 0.653826 0.000008 -0.000015 3.000000 -5.000202 7.999730 -0.000052 0.167698 179.406011 -2.234618 -179.999991 0.000005 -1.097005 168.678543 0.450066 -0.641893 -0.000000 -0.000000 0.136131 70.731486 6.381184 3.390409 25.456894 -7.351341 -0.000009 -0.108549 175.511997 3.605864 -0.000005 -0.000004 -1.328760 -15.902326 4.549682 0.976097 0.000002 0.000003 -0.335674 75.362101 -7.343718 -0.223294 25.459564 7.352138 -0.011625 
55.632301 -9.916331 93.955994 -5.038116 3.266698 -2.439469 -0.229359 -0.331728 0.414431 3.546480 -0.638085 0.830577 5.191523 -0.628305 0.838152 18.870006 1.358247 -1.790754 -16.545404 -4.715116 -1.961557 -37.268384 -83.363053 -41.336551 53.047528 -80.591444 62.266532 0.000000 0.000005 0.000001 22.814538 -13.872585 1.992661 -0.000004 0.000007 -3.000000 -5.000341 -7.998722 0.000216 -1.765638 61.543597 2.393338 -5.824487 109.019190 -9.167439 -0.000000 0.000003 -0.000005 16.669466 2.977762 0.649670 0.000008 -0.000014 3.000000 -5.000201 7.999730 -0.000051 0.152771 179.408005 -2.215268 -179.999991 0.000005 -1.094997 168.654801 0.416693 -0.645390 0.000000 0.000000 0.134808 70.733268 6.370627 3.419111 25.456899 -7.351342 -0.000009 -0.133962 175.510003 3.602678 -0.000005 -0.000004 -1.328760 -15.977266 4.548884 0.980404 0.000002 0.000003 -0.336013 75.408560 -7.341163 -0.223934 25.459564 7.352139 -0.011625 
55.617798 -9.911414 93.911400 -5.041265 3.268078 -2.435327 -0.228981 -0.331708 0.414168 3.547252 -0.639504 0.830059 5.192295 -0.629713 0.837652 18.890618 1.358619 -1.794696 -16.560366 -4.723670 -1.966151 -37.319904 -83.372554 -41.388860 53.120249 -80.575004 62.125563 0.000001 0.000007 0.000001 23.049110 -13.927323 2.038898 0.000000 0.000007 -3.000000 -5.000341 -7.998723 0.000216 -1.745297 61.550065 2.370509 -6.047798 109.045425 -8.851475 0.000000 0.000004 -0.000005 16.750774 3.015269 0.645387 0.000008 -0.000014 3.000001 -5.000203 7.999728 -0.000052 0.137859 179.410000 -2.195049 -179.999991 0.000005 -1.092006 168.631947 0.382348 -0.649131 0.000001 0.000000 0.133361 70.733712 6.359740 3.448833 25.456894 -7.351341 -0.000009 -0.159958 175.508008 3.599268 -0.000004 -0.000005 -1.328759 -16.053813 4.548320 0.984821 0.000002 0.000003 -0.336336 75.455805 -7.338553 -0.224621 25.459563 7.352138 -0.011625 
55.598701 -9.877419 93.912102 -5.044644 3.269505 -2.431187 -0.228544 -0.331684 0.413910 3.548122 -0.640943 0.829549 5.193167 -0.631142 0.837158 18.911023 1.358775 -1.798560 -16.575220 -4.732129 -1.970658 -37.373043 -83.382314 -41.442825 53.194773 -80.557935 61.988359 0.000001 0.000005 -0.000000 23.281186 -13.982226 2.085410 0.000001 0.000007 -3.000000 -5.000343 -7.998724 0.000216 -1.725267 61.556520 2.348032 -6.272226 109.071988 -8.535019 -0.000000 0.000002 -0.000006 16.830790 3.052364 0.640983 0.000008 -0.000014 3.000000 -5.000202 7.999729 -0.000051 0.122966 179.413019 -2.174219 -179.999991 0.000005 -1.089998 168.609790 0.347032 -0.654083 -0.000000 0.000000 0.131828 70.733234 6.348636 3.479170 25.456899 -7.351339 -0.000009 -0.186347 175.505030 3.595715 -0.000005 -0.000004 -1.328760 -16.131368 4.547927 0.989306 0.000003 0.000003 -0.336648 75.503548 -7.335992 -0.224982 25.459563 7.352138 -0.011625 
55.612701 -9.903911 93.897209 -5.048135 3.270942 -2.427049 -0.228074 -0.331656 0.413654 3.549073 -0.642392 0.829044 5.194119 -0.632582 0.836670 18.931531 1.358808 -1.802364 -16.589988 -4.740524 -1.975106 -37.426664 -83.392143 -41.497282 53.269444 -80.540436 61.852404 0.000000 0.000004 -0.000001 23.511787 -14.037195 2.132293 -0.000001 0.000006 -3.000001 -5.000343 -7.998722 0.000216 -1.705408 61.562968 2.325751 -6.496722 109.099855 -8.218788 -0.000000 0.000003 -0.000006 16.910215 3.089201 0.636476 0.000009 -0.000015 3.000001 -5.000202 7.999729 -0.000051 0.108074 179.414999 -2.153053 -179.999991 0.000005 -1.087006 168.588043 0.310731 -0.658282 -0.000000 0.000000 0.130246 70.732182 6.337353 3.510108 25.456895 -7.351342 -0.000009 -0.212971 175.503036 3.592080 -0.000005 -0.000005 -1.328760 -16.209627 4.547622 0.993841 0.000002 0.000003 -0.336955 75.551550 -7.333470 -0.225334 25.459566 7.352137 -0.011625 
55.631699 -9.978253 93.900002 -5.051657 3.272388 -2.422899 -0.227598 -0.331627 0.413398 3.550025 -0.643845 0.828539 5.195069 -0.634024 0.836182 18.951939 1.358812 -1.806156 -16.604750 -4.748896 -1.979548 -37.481087 -83.402053 -41.552542 53.344877 -80.523033 61.717494 0.000001 0.000004 -0.000001 23.742152 -14.092102 2.179640 -0.000000 0.000007 -3.000001 -5.000343 -7.998723 0.000216 -1.685580 61.569326 2.303506 -6.721012 109.127995 -7.903019 -0.000000 0.000003 -0.000006 16.989447 3.125986 0.631863 0.000007 -0.000015 3.000001 -5.000203 7.999728 -0.000051 0.093186 179.418005 -2.131806 -179.999991 0.000005 -1.084001 168.566268 0.275426 -0.662294 0.000000 0.000000 0.128651 70.731117 6.326039 3.541042 25.456899 -7.351341 -0.000010 -0.239654 175.500030 3.588424 -0.000005 -0.000005 -1.328761 -16.288090 4.547333 0.998390 0.000002 0.000003 -0.337259 75.599600 -7.330965 -0.225588 25.459566 7.352137 -0.011625 
55.620399 -9.975760 93.895393 -5.055121 3.273825 -2.418763 -0.227139 -0.331598 0.413141 3.550955 -0.645292 0.828033 5.196001 -0.635462 0.835692 18.972346 1.358863 -1.809975 -16.619508 -4.757307 -1.984019 -37.535571 -83.411957 -41.607853 53.419917 -80.505958 61.581641 0.000001 0.000006 -0.000001 23.973390 -14.146734 2.227529 -0.000002 0.000006 -3.000000 -5.000340 -7.998724 0.000216 -1.665661 61.575767 2.281158 -6.944456 109.156402 -7.587912 -0.000000 0.000003 -0.000007 17.069099 3.162877 0.627156 0.000008 -0.000014 2.999999 -5.000200 7.999730 -0.000051 0.078293 179.419999 -2.110722 -179.999991 0.000005 -1.082006 168.544302 0.239136 -0.666546 0.000000 -0.000000 0.127082 70.730202 6.314827 3.571786 25.456895 -7.351342 -0.000009 -0.266220 175.498050 3.584817 -0.000005 -0.000004 -1.328760 -16.366248 4.546992 1.002919 0.000003 0.000003 -0.337568 75.647542 -7.328426 -0.225948 25.459563 7.352136 -0.011625 
55.625603 -10.005610 93.886009 -5.058432 3.275233 -2.414619 -0.226719 -0.331576 0.412880 3.551797 -0.646725 0.827520 5.196842 -0.636885 0.835197 18.992850 1.359074 -1.813862 -16.634381 -4.765780 -1.988565 -37.588870 -83.421601 -41.661968 53.494284 -80.489627 61.443699 0.000000 0.000005 0.000000 24.206737 -14.200953 2.276065 0.000000 0.000006 -3.000001 -5.000341 -7.998723 0.000216 -1.645505 61.582215 2.258538 -7.165995 109.186038 -7.274408 -0.000000 0.000002 -0.000007 17.149567 3.200051 0.622344 0.000008 -0.000015 3.000001 -5.000202 7.999729 -0.000051 0.063391 179.423004 -2.090078 -179.999991 0.000005 -1.079001 168.521927 0.203842 -0.670610 0.000000 0.000000 0.125573 70.729990 6.303800 3.601920 25.456894 -7.351342 -0.000009 -0.292501 175.495058 3.581315 -0.000005 -0.000004 -1.328760 -16.443499 4.546529 1.007386 0.000002 0.000003 -0.337884 75.695073 -7.325911 -0.226440 25.459564 7.352138 -0.011625 
55.626900 -10.026212 93.869797 -5.061495 3.276602 -2.410471 -0.226366 -0.331558 0.412616 3.552517 -0.648135 0.826999 5.197564 -0.638285 0.834693 19.013365 1.359521 -1.817850 -16.649348 -4.774363 -1.993223 -37.640326 -83.430911 -41.714202 53.567152 -80.474361 61.302000 0.000000 0.000004 0.000000 24.443323 -14.254620 2.325351 -0.000000 0.000006 -3.000000 -5.000341 -7.998723 0.000217 -1.624977 61.588663 2.235497 -7.385764 109.214875 -6.961991 -0.000000 0.000003 -0.000005 17.231363 3.237699 0.617451 0.000007 -0.000013 3.000000 -5.000200 7.999729 -0.000051 0.048471 179.424999 -2.070136 -179.999991 0.000005 -1.077007 168.498854 0.170507 -0.674302 0.000000 0.000000 0.124163 70.730912 6.292999 3.631330 25.456894 -7.351341 -0.000010 -0.318325 175.493064 3.577995 -0.000005 -0.000004 -1.328760 -16.519545 4.545874 1.011771 0.000001 0.000003 -0.338212 75.742051 -7.323371 -0.227166 25.459563 7.352138 -0.011626 
55.603401 -9.973360 93.857300 -5.064237 3.277913 -2.406317 -0.226093 -0.331547 0.412346 3.553059 -0.649515 0.826465 5.198105 -0.639656 0.834175 19.034076 1.360297 -1.821988 -16.664521 -4.783102 -1.998040 -37.689482 -83.439804 -41.764110 53.637964 -80.460503 61.155178 0.000000 0.000005 -0.000001 24.684481 -14.307574 2.375536 -0.000001 0.000006 -3.000002 -5.000343 -7.998722 0.000216 -1.603947 61.595206 2.211884 -7.602385 109.244866 -6.651958 -0.000000 0.000003 -0.000005 17.315192 3.275967 0.612452 0.000009 -0.000013 2.999999 -5.000204 7.999731 -0.000051 0.033536 179.427007 -2.051135 -179.999991 0.000005 -1.074998 168.474771 0.138155 -0.678831 0.000000 0.000000 0.122889 70.733330 6.282641 3.659430 25.456895 -7.351343 -0.000009 -0.343513 175.491083 3.574916 -0.000005 -0.000004 -1.328760 -16.593876 4.544953 1.016038 0.000001 0.000003 -0.338558 75.788264 -7.320825 -0.227943 25.459563 7.352139 -0.011625 
